<svg xmlns="http://www.w3.org/2000/svg" version="1.1" xmlns:xlink="http://www.w3.org/1999/xlink" xmlns:svgjs="http://svgjs.com/svgjs" width="512" height="512" x="0" y="0" viewBox="0 0 512 512" style="enable-background:new 0 0 512 512" xml:space="preserve" class=""><g><path d="M256.004 158.536c-53.743 0-97.467 43.722-97.467 97.464s43.724 97.464 97.467 97.464 97.467-43.722 97.467-97.464-43.724-97.464-97.467-97.464z" fill="#ffffff" data-original="#000000" class=""></path><path d="M376.5 0h-241C60.785 0 0 60.785 0 135.5v241C0 451.215 60.785 512 135.5 512h241c74.715 0 135.5-60.785 135.5-135.5v-241C512 60.785 451.215 0 376.5 0zM256.004 383.464c-70.285 0-127.467-57.18-127.467-127.464s57.182-127.464 127.467-127.464S383.471 185.716 383.471 256s-57.182 127.464-127.467 127.464zM409.21 124.013a15.112 15.112 0 0 1-10.61 4.391 15.15 15.15 0 0 1-10.61-4.391c-2.79-2.8-4.38-6.67-4.38-10.609 0-3.95 1.59-7.811 4.38-10.61 2.801-2.79 6.66-4.39 10.61-4.39s7.82 1.6 10.61 4.39a15.13 15.13 0 0 1 4.39 10.61c0 3.949-1.6 7.809-4.39 10.609z" fill="#ffffff" data-original="#000000" class=""></path></g></svg>